# xmcd CD database file
#
# Track frame offsets:
#	150
#	17285
#	36595
#	53730
#
# Disc length: 970 seconds
#
# Revision: 2
# Processed by: cddbd v1.5.1PL2 Copyright (c) Steve Scherf et al.
# Submitted via: CDex 1.51
#
DISCID=2803c804
DTITLE=大塚　愛 - Frienger (Single)
DYEAR=2006
DGENRE=Pop
TTITLE0=フレンジャー
TTITLE1=甘い気持ちまるかじり
TTITLE2=フレンジャー(instrumental)
TTITLE3=甘い気持ちまるかじり(instrumental)
EXTD=YEAR: 2006
EXTT0=
EXTT1=
EXTT2=
EXTT3=
PLAYORDER=
